<svg xmlns="http://www.w3.org/2000/svg" viewBox="0 0 940 580"><defs><style>.cls-1{fill:#435058;}.cls-2{fill:#f1f2ee;}.cls-3{fill:none;stroke:#9eda4a;stroke-miterlimit:10;stroke-width:8px;}</style></defs><title>Logo_Dark_Cropped</title><g id="Tree"><rect class="cls-1" width="940" height="580"/><path class="cls-2" d="M121.66,171.18v12.93a25.62,25.62,0,0,1-2.31,10.24,17.6,17.6,0,0,1-5.5,6.92c-2.56,2-6,3.2-10.62,3.2s-8.2-1.16-10.76-3.2a17.25,17.25,0,0,1-5.37-6.92,25.62,25.62,0,0,1-2.31-10.24V128.69a25.54,25.54,0,0,1,2.31-10.12,16.21,16.21,0,0,1,16.13-10.24,17.21,17.21,0,0,1,10.62,3.2,17.94,17.94,0,0,1,5.5,7,25.54,25.54,0,0,1,2.31,10.12v12.92H108.73V128.69a8,8,0,0,0-2-5.89,4.56,4.56,0,0,0-3.2-1c-2.43,0-3.58,1.8-4.22,3.46a13.65,13.65,0,0,0-.64,3.46v55.42a8.84,8.84,0,0,0,2.17,5.89,3.67,3.67,0,0,0,2.69,1,4.45,4.45,0,0,0,4.74-3.45,9.06,9.06,0,0,0,.51-3.46V171.18Z"/><path class="cls-2" d="M170.55,109.36v74.75a25.62,25.62,0,0,1-2.3,10.24,17.69,17.69,0,0,1-5.5,6.92c-2.57,2-6,3.2-10.63,3.2s-8.19-1.16-10.75-3.2a17.27,17.27,0,0,1-5.38-6.92,25.62,25.62,0,0,1-2.3-10.24V109.36h13.82v74.75a8.16,8.16,0,0,0,1.92,5.89,3.67,3.67,0,0,0,2.69,1c2.43,0,3.58-1.53,4.1-3.45a9.06,9.06,0,0,0,.51-3.46V109.36Z"/><path class="cls-2" d="M184.5,109.36h13.83v81.28h18.3v12.8H184.5Z"/><path class="cls-2" d="M221.24,123.57V109.36h39.94v14.21H248.12v79.87H234.29V123.57Z"/><path class="cls-2" d="M270.39,109.36h13.82v94.08H270.39Z"/><path class="cls-2" d="M323.38,109.36h13.44l-14.33,94.08H308.66l-14.34-94.08h13.45l6.91,51.71.51,4H316l.51-4Z"/><path class="cls-2" d="M343.09,203.44l14.21-94.08h16.9l14.21,94.08H375l-2.56-19.2H359.09l-2.56,19.2ZM366.52,140l-.39-2.43h-.77L365,140l-4,29.7h9.47Z"/><path class="cls-2" d="M391,123.57V109.36H430.9v14.21H417.84v79.87H404V123.57Z"/><path class="cls-2" d="M440.12,109.36h31.61v14.21H453.94v24.7h12.8v15.11h-12.8v25.85h17.79v14.21H440.12Z"/><path class="cls-2" d="M338.49,277.17V263h39.93v14.21H365.37V357H351.54V277.17Z"/><path class="cls-2" d="M412.21,316.08H401.46v41H387.64V263h13.82v38.91h10.75V263H426V357H412.21Z"/><path class="cls-2" d="M440.12,263h31.61v14.21H453.94v24.7h12.8V317h-12.8v25.85h17.79V357H440.12Z"/><path class="cls-2" d="M242.23,510.64H231.48l-12.67-94.08h12.8l5.5,48.9.26,3.07h1l.39-3.07,5.88-48.9h10l5.89,48.9.38,3.07h1l.26-3.07,5.51-48.9H280.5l-12.67,94.08H257.08l-6.4-44.54-.77-5.51h-.51l-.77,5.51Z"/><path class="cls-2" d="M327,491.31a25.62,25.62,0,0,1-2.31,10.24,17.6,17.6,0,0,1-5.5,6.92c-2.56,2-6,3.2-10.62,3.2s-8.2-1.16-10.76-3.2a17.25,17.25,0,0,1-5.37-6.92,25.62,25.62,0,0,1-2.31-10.24V435.89a25.54,25.54,0,0,1,2.31-10.12,16.21,16.21,0,0,1,16.13-10.24,17.21,17.21,0,0,1,10.62,3.2,17.94,17.94,0,0,1,5.5,7A25.54,25.54,0,0,1,327,435.89Zm-13.83-55.42a8.53,8.53,0,0,0-1.79-5.89,4,4,0,0,0-2.81-1c-2.44,0-3.59,1.8-4.1,3.46a9.68,9.68,0,0,0-.51,3.46v55.42a8.16,8.16,0,0,0,1.92,5.89,3.66,3.66,0,0,0,2.69,1c2.43,0,3.58-1.54,4.09-3.46a9.06,9.06,0,0,0,.51-3.46Z"/><path class="cls-2" d="M364.85,510.64,357.69,471H354v39.68H340.15V416.56H354c16.52,0,23.56,9.34,23.56,27.13,0,9.35-2.44,17.8-7.68,21.38l8.83,45.57ZM354,458.16a9.62,9.62,0,0,0,6.53-2.05c2.05-1.79,3.71-5.25,3.71-11.9s-1.66-10.24-3.71-12-4.61-1.92-6.53-1.92Z"/><path class="cls-2" d="M390.2,416.56H404v81.28h18.31v12.8H390.2Z"/><path class="cls-2" d="M431.79,510.64V416.56h10.89c12.8,0,19.71,2.56,23.42,9.73s4.1,18.94,4.1,37.37-.52,30.09-4.1,37.25-10.62,9.73-23.42,9.73Zm13.83-13.82c4.74,0,7.42-.51,8.83-5.12a41.37,41.37,0,0,0,1.28-10c.13-4.48.13-10.49.13-18.17s0-13.7-.13-18.18a43.4,43.4,0,0,0-1.28-10c-1.41-4.48-4.09-5-8.83-5Z"/><rect class="cls-3" x="539.43" y="90" width="80" height="80"/><rect class="cls-3" x="539.43" y="210" width="80" height="80"/><rect class="cls-3" x="659.43" y="150" width="80" height="80"/><rect class="cls-3" x="779.43" y="270" width="80" height="80"/><line class="cls-3" x1="619.43" y1="130" x2="699.43" y2="130"/><line class="cls-3" x1="699.43" y1="150" x2="699.43" y2="126"/><line class="cls-3" x1="699.43" y1="230" x2="699.43" y2="254"/><line class="cls-3" x1="619.43" y1="250" x2="699.43" y2="250"/><rect class="cls-3" x="539.43" y="330" width="80" height="80"/><rect class="cls-3" x="539.43" y="450" width="80" height="80"/><rect class="cls-3" x="659.43" y="390" width="80" height="80"/><line class="cls-3" x1="619.43" y1="370" x2="699.43" y2="370"/><line class="cls-3" x1="699.43" y1="390" x2="699.43" y2="366"/><line class="cls-3" x1="699.43" y1="470" x2="699.43" y2="494"/><line class="cls-3" x1="619.43" y1="490" x2="699.43" y2="490"/><line class="cls-3" x1="739.43" y1="190" x2="819.43" y2="190"/><line class="cls-3" x1="819.43" y1="270" x2="819.43" y2="186"/><line class="cls-3" x1="739.43" y1="430" x2="819.43" y2="430"/><line class="cls-3" x1="819.43" y1="350" x2="819.43" y2="434"/></g></svg>